
<svg width="450" height="400" viewBox="0 0 450 400" fill="none" xmlns="http://www.w3.org/2000/svg">
  <style>
    @keyframes float {
      0%, 100% { transform: translateY(0px); }
      50% { transform: translateY(-10px); }
    }
    @keyframes pulse {
      0%, 100% { opacity: 1; }
      50% { opacity: 0.8; }
    }
    @keyframes spin {
      from { transform: rotate(0deg); }
      to { transform: rotate(360deg); }
    }
    .cloud { animation: float 6s ease-in-out infinite; }
    .glow { animation: pulse 3s ease-in-out infinite; }
    .wave { animation: float 4s ease-in-out infinite; }
    .circle { animation: spin 15s linear infinite; }
  </style>
  <g class="cloud" opacity="0.2">
    <path d="M375 150C387.15 150 397 140.15 397 128C397 115.85 387.15 106 375 106C372.36 106 369.84 106.55 367.53 107.55C364.54 89.37 348.85 75.5 330 75.5C309.01 75.5 292 92.51 292 113.5C292 114.45 292.03 115.4 292.09 116.33C289.78 115.47 287.26 115 284.63 115C273.43 115 264.38 124.05 264.38 135.25C264.38 146.45 273.43 155.5 284.63 155.5H375V150Z" fill="url(#paint0_linear)"/>
  </g>
  <g class="cloud" opacity="0.2">
    <path d="M135 200C147.15 200 157 190.15 157 178C157 165.85 147.15 156 135 156C132.36 156 129.84 156.55 127.53 157.55C124.54 139.37 108.85 125.5 90 125.5C69.01 125.5 52 142.51 52 163.5C52 164.45 52.03 165.4 52.09 166.33C49.78 165.47 47.26 165 44.63 165C33.43 165 24.38 174.05 24.38 185.25C24.38 196.45 33.43 205.5 44.63 205.5H135V200Z" fill="url(#paint1_linear)"/>
  </g>
  <circle class="circle" cx="225" cy="200" r="120" stroke="url(#paint2_linear)" stroke-width="2" stroke-dasharray="8 8"/>
  <g class="glow">
    <circle cx="225" cy="200" r="90" fill="url(#paint3_radial)" fill-opacity="0.2"/>
  </g>
  <g class="wave">
    <path d="M225 140V260" stroke="url(#paint4_linear)" stroke-width="4" stroke-linecap="round"/>
    <path d="M200 180C200 180 210 160 225 160C240 160 250 180 250 180" stroke="url(#paint5_linear)" stroke-width="4" stroke-linecap="round"/>
    <path d="M185 200C185 200 200 170 225 170C250 170 265 200 265 200" stroke="url(#paint6_linear)" stroke-width="4" stroke-linecap="round"/>
    <path d="M175 220C175 220 195 180 225 180C255 180 275 220 275 220" stroke="url(#paint7_linear)" stroke-width="4" stroke-linecap="round"/>
  </g>
  <circle cx="225" cy="120" r="20" fill="url(#paint8_linear)"/>
  <defs>
    <linearGradient id="paint0_linear" x1="300" y1="75.5" x2="300" y2="155.5" gradientUnits="userSpaceOnUse">
      <stop stop-color="#8B5CF6"/>
      <stop offset="1" stop-color="#D946EF"/>
    </linearGradient>
    <linearGradient id="paint1_linear" x1="90" y1="125.5" x2="90" y2="205.5" gradientUnits="userSpaceOnUse">
      <stop stop-color="#8B5CF6"/>
      <stop offset="1" stop-color="#D946EF"/>
    </linearGradient>
    <linearGradient id="paint2_linear" x1="225" y1="80" x2="225" y2="320" gradientUnits="userSpaceOnUse">
      <stop stop-color="#8B5CF6"/>
      <stop offset="1" stop-color="#D946EF"/>
    </linearGradient>
    <radialGradient id="paint3_radial" cx="0" cy="0" r="1" gradientUnits="userSpaceOnUse" gradientTransform="translate(225 200) rotate(90) scale(90)">
      <stop stop-color="#8B5CF6"/>
      <stop offset="1" stop-color="#D946EF" stop-opacity="0"/>
    </radialGradient>
    <linearGradient id="paint4_linear" x1="225" y1="140" x2="225" y2="260" gradientUnits="userSpaceOnUse">
      <stop stop-color="#8B5CF6"/>
      <stop offset="1" stop-color="#D946EF"/>
    </linearGradient>
    <linearGradient id="paint5_linear" x1="225" y1="160" x2="225" y2="180" gradientUnits="userSpaceOnUse">
      <stop stop-color="#8B5CF6"/>
      <stop offset="1" stop-color="#D946EF"/>
    </linearGradient>
    <linearGradient id="paint6_linear" x1="225" y1="170" x2="225" y2="200" gradientUnits="userSpaceOnUse">
      <stop stop-color="#8B5CF6"/>
      <stop offset="1" stop-color="#D946EF"/>
    </linearGradient>
    <linearGradient id="paint7_linear" x1="225" y1="180" x2="225" y2="220" gradientUnits="userSpaceOnUse">
      <stop stop-color="#8B5CF6"/>
      <stop offset="1" stop-color="#D946EF"/>
    </linearGradient>
    <linearGradient id="paint8_linear" x1="225" y1="100" x2="225" y2="140" gradientUnits="userSpaceOnUse">
      <stop stop-color="#8B5CF6"/>
      <stop offset="1" stop-color="#D946EF"/>
    </linearGradient>
  </defs>
</svg>
